<svg width="96" height="96" xmlns="http://www.w3.org/2000/svg" xmlns:xlink="http://www.w3.org/1999/xlink" xml:space="preserve" overflow="hidden"><defs><clipPath id="clip0"><rect x="585" y="560" width="96" height="96"/></clipPath></defs><g clip-path="url(#clip0)" transform="translate(-585 -560)"><path d="M617.793 601.707C618.183 602.097 618.817 602.097 619.207 601.707L625 595.914 630.793 601.707C631.19 602.091 631.823 602.08 632.207 601.682 632.581 601.295 632.581 600.68 632.207 600.293L626.414 594.5 632.207 588.707C632.591 588.31 632.58 587.677 632.182 587.293 631.795 586.919 631.18 586.919 630.793 587.293L625 593.086 619.207 587.293C618.81 586.909 618.177 586.92 617.793 587.318 617.419 587.705 617.419 588.32 617.793 588.707L623.586 594.5 617.793 600.293C617.403 600.683 617.403 601.317 617.793 601.707Z" stroke="#1976D2"/><path d="M654.207 615.293C653.817 614.903 653.183 614.903 652.793 615.293L647 621.086 641.207 615.293C640.81 614.909 640.177 614.92 639.793 615.318 639.419 615.705 639.419 616.32 639.793 616.707L645.586 622.5 639.793 628.293C639.396 628.677 639.385 629.31 639.768 629.707 640.152 630.104 640.785 630.115 641.182 629.732 641.191 629.724 641.199 629.715 641.207 629.707L647 623.914 652.793 629.707C653.19 630.091 653.823 630.08 654.207 629.682 654.581 629.295 654.581 628.68 654.207 628.293L648.414 622.5 654.207 616.707C654.597 616.317 654.597 615.683 654.207 615.293Z" stroke="#1976D2"/><path d="M625.231 630C629.373 629.84 632.723 626.574 632.988 622.438 633.214 618.247 630.164 614.594 626 614.069L626 612C626 610.343 627.343 609 629 609L643 609C645.761 609 648 606.761 648 604L648 590.438C648 590.432 648.005 590.428 648.01 590.428 648.013 590.428 648.015 590.429 648.017 590.431L653.293 595.707C653.69 596.091 654.323 596.08 654.707 595.682 655.081 595.295 655.081 594.68 654.707 594.293L647.707 587.293C647.698 587.284 647.685 587.281 647.676 587.272 647.591 587.189 647.492 587.121 647.383 587.072L647.383 587.072C647.375 587.072 647.365 587.072 647.356 587.066 647.255 587.028 647.149 587.007 647.042 587.004 647.009 587.004 646.975 587.006 646.942 587.01 646.858 587.015 646.775 587.031 646.695 587.058 646.661 587.068 646.628 587.079 646.595 587.093 646.483 587.14 646.382 587.208 646.295 587.293L639.295 594.293C638.911 594.69 638.922 595.323 639.32 595.707 639.707 596.081 640.321 596.081 640.709 595.707L645.985 590.431C645.989 590.427 645.995 590.427 645.999 590.431 646.001 590.433 646.002 590.435 646.002 590.438L646.002 604C646.002 605.657 644.659 607 643.002 607L629 607C626.239 607 624 609.239 624 612L624 614.069C619.618 614.637 616.527 618.65 617.095 623.031 617.622 627.095 621.135 630.104 625.231 630ZM625 616C628.314 616 631 618.686 631 622 631 625.314 628.314 628 625 628 621.686 628 619 625.314 619 622 619.004 618.688 621.688 616.004 625 616Z" stroke="#1976D2"/><path d="M604.452 624 607 624 607 632 604.452 632C603.099 632.002 602.002 633.099 602 634.452L602 634.661C602.001 635.952 603.048 636.999 604.339 637L605 637C605.552 637 606 636.552 606 636 606 635.448 605.552 635 605 635L604.339 635C604.152 635 604 634.848 604 634.661L604 634.452C604 634.203 604.203 634.001 604.452 634L607 634 607 640C607 640.552 607.448 641 608 641L664 641C664.552 641 665 640.552 665 640L665 577C665 576.448 664.552 576 664 576L608 576C607.448 576 607 576.448 607 577L607 582 604.452 582C603.099 582.002 602.002 583.099 602 584.452L602 584.661C602.001 585.952 603.048 586.999 604.339 587L605 587C605.552 587 606 586.552 606 586 606 585.448 605.552 585 605 585L604.339 585C604.152 585 604 584.848 604 584.661L604 584.452C604 584.203 604.203 584 604.452 584L607 584 607 592 604.452 592C603.099 592.002 602.002 593.099 602 594.452L602 594.661C602.001 595.952 603.048 596.999 604.339 597L605 597C605.552 597 606 596.552 606 596 606 595.448 605.552 595 605 595L604.339 595C604.152 595 604 594.848 604 594.661L604 594.452C604 594.203 604.203 594 604.452 594L607 594 607 602 604.452 602C603.099 602.002 602.002 603.099 602 604.452L602 604.661C602.001 605.952 603.048 606.999 604.339 607L605 607C605.552 607 606 606.552 606 606 606 605.448 605.552 605 605 605L604.339 605C604.152 605 604 604.848 604 604.661L604 604.452C604 604.203 604.203 604 604.452 604L607 604 607 612 604.452 612C603.099 612.002 602.002 613.099 602 614.452L602 614.661C602.001 615.952 603.048 616.999 604.339 617L605 617C605.552 617 606 616.552 606 616 606 615.448 605.552 615 605 615L604.339 615C604.152 615 604 614.848 604 614.661L604 614.452C604 614.203 604.203 614 604.452 614L607 614 607 622 604.452 622C603.099 622.002 602.002 623.099 602 624.452L602 624.661C602.001 625.952 603.048 626.999 604.339 627L605 627C605.552 627 606 626.552 606 626 606 625.448 605.552 625 605 625L604.339 625C604.152 625 604 624.848 604 624.661L604 624.452C604 624.203 604.203 624.001 604.452 624ZM609 578 663 578 663 639 609 639Z" stroke="#1976D2"/></g></svg>