<svg width="96" height="96" xmlns="http://www.w3.org/2000/svg" xmlns:xlink="http://www.w3.org/1999/xlink" xml:space="preserve" overflow="hidden"><defs><clipPath id="clip0"><rect x="950" y="69" width="96" height="96"/></clipPath></defs><g clip-path="url(#clip0)" transform="translate(-950 -69)"><path d="M985.293 111.293 974.586 122 985.293 132.707 986.707 131.293 977.414 122 986.707 112.707 985.293 111.293Z" fill="#1976D2"/><path d="M1009.29 112.707 1018.59 122 1009.29 131.293 1010.71 132.707 1021.41 122 1010.71 111.293 1009.29 112.707Z" fill="#1976D2"/><path d="M992.083 133.601 1002.08 110.601 1003.92 111.398 993.917 134.399Z" fill="#1976D2"/><path d="M958 148 1038 148 1038 86 958 86ZM960 146 960 102 1036 102 1036 146ZM1036 88 1036 100 960 100 960 88Z" fill="#1976D2"/><path d="M1015 94C1015 95.1046 1014.1 96 1013 96 1011.9 96 1011 95.1046 1011 94 1011 92.8954 1011.9 92 1013 92 1014.1 92 1015 92.8954 1015 94Z" fill="#1976D2"/><path d="M1022 94C1022 95.1046 1021.1 96 1020 96 1018.9 96 1018 95.1046 1018 94 1018 92.8954 1018.9 92 1020 92 1021.1 92 1022 92.8954 1022 94Z" fill="#1976D2"/><path d="M1029 94C1029 95.1046 1028.1 96 1027 96 1025.9 96 1025 95.1046 1025 94 1025 92.8954 1025.9 92 1027 92 1028.1 92 1029 92.8954 1029 94Z" fill="#1976D2"/></g></svg>