<svg width="96" height="96" xmlns="http://www.w3.org/2000/svg" xmlns:xlink="http://www.w3.org/1999/xlink" xml:space="preserve" overflow="hidden"><defs><clipPath id="clip0"><rect x="651" y="186" width="96" height="96"/></clipPath></defs><g clip-path="url(#clip0)" transform="translate(-651 -186)"><path d="M731 220 731 199 724.3 205.7C717.6 199.7 708.7 196 699 196 678 196 661 213 661 234 661 255 678 272 699 272 709.5 272 719 267.7 725.9 260.9L717.4 252.4C712.7 257.1 706.2 260 699 260 684.7 260 673 248.3 673 234 673 219.7 684.7 208 699 208 705.4 208 711.3 210.3 715.8 214.2L710 220 731 220Z" stroke="#1976D2" fill="#1976D2"/></g></svg>