<svg width="96" height="96" xmlns="http://www.w3.org/2000/svg" xmlns:xlink="http://www.w3.org/1999/xlink" xml:space="preserve" overflow="hidden"><defs><clipPath id="clip0"><rect x="241" y="186" width="96" height="96"/></clipPath></defs><g clip-path="url(#clip0)" transform="translate(-241 -186)"><path d="M305 206.858C309.418 206.858 313 203.276 313 198.858 313 194.44 309.418 190.858 305 190.858 300.582 190.858 297 194.44 297 198.858 297 203.276 300.582 206.858 305 206.858ZM305 192.858C308.314 192.858 311 195.544 311 198.858 311 202.172 308.314 204.858 305 204.858 301.686 204.858 299 202.172 299 198.858 299.002 195.545 301.687 192.858 305 192.854Z" stroke="#1976D2"/><path d="M277.441 253.706C276.94 254.663 275.947 255.26 274.867 255.253L256.112 255.253C254.483 255.253 253.162 253.932 253.162 252.303 253.162 250.674 254.483 249.353 256.112 249.353L272.5 249.353C272.868 249.353 273.207 249.15 273.381 248.826L278.081 240.067C277.588 239.408 277.217 238.665 276.987 237.874L271.9 247.354 256.112 247.354C253.378 247.354 251.162 249.57 251.162 252.304 251.162 255.038 253.378 257.254 256.112 257.254L274.867 257.254C276.684 257.266 278.357 256.263 279.201 254.654L284.07 245.679 282.545 244.3Z" stroke="#1976D2"/><path d="M326.4 213.058C326.031 211.764 325.151 210.677 323.963 210.047 322.809 209.461 321.474 209.344 320.236 209.719 318.997 210.095 317.967 210.966 317.39 212.125L314.5 217.581 311.516 215.7 311.516 215.7 307.204 212.984 307.194 212.978 307.194 212.978 302.434 209.978 302.434 209.978 300.48 208.748C299.711 208.244 298.807 207.984 297.888 208L281.388 208C279.595 207.987 277.945 208.976 277.111 210.563L270.811 222.19C270.17 223.305 270.016 224.633 270.384 225.865 270.748 227.138 271.615 228.208 272.784 228.829 273.494 229.195 274.277 229.396 275.076 229.42 276.86 229.405 278.497 228.426 279.353 226.86L284.311 217.768 287.773 217.768 279.273 233.627C278.21 235.602 278.632 238.047 280.294 239.552L294.927 252.829 294.077 271.829C293.957 273.114 294.371 274.391 295.224 275.36 296.098 276.355 297.342 276.948 298.665 277L298.859 277C301.454 276.976 303.588 274.946 303.741 272.355L304.709 251.03C304.819 249.577 304.234 248.158 303.132 247.205L294.28 238.991 305.023 218.975C305.299 218.497 305.136 217.885 304.658 217.609 304.18 217.332 303.568 217.495 303.292 217.973 303.281 217.992 303.271 218.01 303.262 218.029L292.153 238.729C291.938 239.13 292.02 239.625 292.353 239.935L301.785 248.688C302.435 249.233 302.781 250.059 302.713 250.905L301.742 272.265C301.648 273.792 300.389 274.987 298.859 275L298.711 275C297.948 274.969 297.231 274.624 296.73 274.047 296.231 273.475 295.993 272.721 296.072 271.966L296.945 252.448C296.959 252.151 296.839 251.863 296.618 251.663L281.633 238.071C280.652 237.181 280.404 235.737 281.033 234.571L290.327 217.239C290.588 216.752 290.405 216.146 289.919 215.885 289.773 215.807 289.611 215.766 289.446 215.766L283.715 215.766C283.349 215.766 283.012 215.966 282.837 216.288L277.592 225.905C277.083 226.823 276.123 227.4 275.074 227.418 274.593 227.396 274.123 227.269 273.696 227.048 273.017 226.68 272.515 226.053 272.307 225.309 272.09 224.591 272.18 223.815 272.556 223.165L278.868 211.511C279.358 210.576 280.329 209.993 281.385 210L297.885 210C298.419 209.986 298.945 210.135 299.391 210.429L300.898 211.379 300.898 211.379 307.678 215.65 307.678 215.65 314.341 219.85C314.808 220.145 315.426 220.005 315.72 219.537 315.734 219.516 315.746 219.494 315.758 219.472L319.166 213.042C319.5 212.364 320.099 211.854 320.822 211.633 321.555 211.41 322.346 211.477 323.031 211.82 323.734 212.193 324.255 212.835 324.475 213.6 324.672 214.319 324.567 215.087 324.185 215.727L318.836 225.934C318.47 226.646 317.814 227.166 317.036 227.358 316.248 227.567 315.409 227.434 314.724 226.992L305.944 221.465 305.589 222.143 305.003 223.235 313.638 228.67C314.798 229.425 316.226 229.65 317.562 229.288 318.883 228.951 319.994 228.06 320.611 226.845L325.931 216.687C326.573 215.591 326.742 214.281 326.4 213.058Z" stroke="#1976D2"/></g></svg>