<svg width="96" height="96" xmlns="http://www.w3.org/2000/svg" xmlns:xlink="http://www.w3.org/1999/xlink" xml:space="preserve" overflow="hidden"><defs><clipPath id="clip0"><rect x="321" y="374" width="96" height="96"/></clipPath></defs><g clip-path="url(#clip0)" transform="translate(-321 -374)"><path d="M371.6 421.9C371.3 423.6 371.1 425.3 371.1 427 371.1 437.6 377.6 446.7 386.8 450.7 391.3 444.4 394.1 435.7 394.1 426 394.1 419.5 392.8 414.6 390.6 410.9 386.7 416.9 379.7 421.1 371.6 421.9Z" fill="#1976D2"/><path d="M367 427C367 425.2 366.8 423.5 366.5 421.9 358.4 421.2 351.5 417 347.5 411 345.3 414.7 344 419.6 344 426.1 344 435.7 346.8 444.4 351.3 450.8 360.6 446.7 367 437.6 367 427Z" fill="#1976D2"/><path d="M362.5 388.2C365.1 388.2 367.4 389.2 369.1 390.9 370.8 389.2 373.1 388.2 375.7 388.2 380.8 388.2 384.9 392.3 384.9 397.3 384.9 402.3 380.8 406.4 375.7 406.4 374.6 406.4 373.6 406.2 372.6 405.9L369 411 365.5 405.8C364.5 406.1 363.5 406.3 362.4 406.3 357.3 406.3 353.2 402.2 353.2 397.2 353.2 392.3 357.4 388.2 362.5 388.2ZM369.1 418C380.8 418 390.2 409.7 390.2 399.4 390.2 397.3 389.8 395.2 389 393.4 389.1 393.2 389.1 392.9 389.1 392.6L389.5 384.7C389.4 383.7 388.4 383 387.4 383.1L379.6 385.4C379.6 385.4 379.6 385.4 379.5 385.4 377 384.8 373.6 384.4 369 384.4 364.5 384.4 361.1 384.8 358.5 385.4L358.4 385.4 350.8 383C349.8 382.9 348.8 383.6 348.7 384.6L349.1 392.5C349.1 392.8 349.1 393 349.2 393.3 348.5 395.2 348 397.2 348 399.3 348 409.7 357.4 418 369.1 418Z" fill="#1976D2"/><path d="M379.7 397.3C379.7 399.454 377.909 401.2 375.7 401.2 373.491 401.2 371.7 399.454 371.7 397.3 371.7 395.146 373.491 393.4 375.7 393.4 377.909 393.4 379.7 395.146 379.7 397.3Z" fill="#1976D2"/><path d="M366.5 397.3C366.5 399.454 364.709 401.2 362.5 401.2 360.291 401.2 358.5 399.454 358.5 397.3 358.5 395.146 360.291 393.4 362.5 393.4 364.709 393.4 366.5 395.146 366.5 397.3Z" fill="#1976D2"/><path d="M359 462C360.1 462 361 459.1 361 458 361 456.9 360.1 456 359 456 358.4 456 357.9 456.3 357.5 456.7 357.1 456.3 356.6 456 356 456 355.4 456 354.9 456.3 354.5 456.7 354.1 456.3 353.6 456 353 456 351.9 456 351 456.9 351 458 351 459.1 351.9 462 353 462 353.6 462 354.1 461.1 354.5 460.2 354.9 461.2 355.4 462 356 462 356.6 462 357.1 461.1 357.5 460.2 357.9 461.1 358.4 462 359 462Z" fill="#1976D2"/><path d="M379 452C379.5 452 380 452.1 380.5 452.2 380.6 452.2 380.8 452.1 380.9 452.1 375.6 448.7 371.4 443.7 369 437.7 366.7 443.6 362.5 448.7 357.1 452.1 357.2 452.1 357.3 452.1 357.4 452.2 357.9 452.1 358.4 452 358.9 452 362.2 452 364.9 454.7 364.9 458 364.9 458.6 364.8 459.5 364.5 460.4 365.9 460.8 367.4 461 368.9 461 370.4 461 371.8 460.8 373.2 460.5 372.9 459.5 372.8 458.6 372.8 458 373 454.7 375.7 452 379 452Z" fill="#1976D2"/><path d="M385 456C384.4 456 383.9 456.3 383.5 456.7 383.1 456.3 382.6 456 382 456 381.4 456 380.9 456.3 380.5 456.7 380.1 456.3 379.6 456 379 456 377.9 456 377 456.9 377 458 377 459.1 377.9 462 379 462 379.6 462 380.1 461.1 380.5 460.2 380.9 461.2 381.4 462 382 462 382.6 462 383.1 461.1 383.5 460.2 383.9 461.2 384.4 462 385 462 386.1 462 387 459.1 387 458 387 456.9 386.1 456 385 456Z" fill="#1976D2"/></g></svg>